<svg xmlns="http://www.w3.org/2000/svg" viewBox="0 0 1360 1230" width="1360" height="1230" role="img" aria-label="화면과 유스케이스 맵" font-family="'Segoe UI','Malgun Gothic','Apple SD Gothic Neo','Noto Sans KR',sans-serif">
<defs>
<marker id="open2" viewBox="0 0 12 12" refX="11" refY="6" markerWidth="13" markerHeight="13" orient="auto-start-reverse"><path d="M1,1 L11,6 L1,11" fill="none" stroke="#9AA08F" stroke-width="1.6"/></marker>
<marker id="solid2" viewBox="0 0 12 12" refX="10" refY="6" markerWidth="11" markerHeight="11" orient="auto-start-reverse"><path d="M1,1 L11,6 L1,11 Z" fill="#9AA08F"/></marker>
</defs>
<rect width="1360" height="1230" fill="#FFFFFF"/>
<text x="40" y="62" font-size="25" font-weight="700" fill="#1F231B">화면 – 유스케이스 맵</text><text x="40" y="90" font-size="15.5" fill="#5C6355">어느 화면 파일이 어떤 유스케이스를 담는가 · 붉은 칩 = 그 화면에 들어갈 자리(아직 없음) · frontend/app/ 기준</text><text x="40" y="132" font-size="15" font-weight="700" fill="#5C6355" letter-spacing="1">진입</text><text x="40" y="394" font-size="15" font-weight="700" fill="#5C6355" letter-spacing="1">하단 탭 5개</text><text x="40" y="866" font-size="15" font-weight="700" fill="#5C6355" letter-spacing="1">탭 위에 쌓이는 화면</text><line x1="332" y1="200" x2="427" y2="200" stroke="#9AA08F" stroke-width="1.6" marker-end="url(#solid2)"/><text x="380" y="188" font-size="14.5" fill="#5C6355" text-anchor="middle" paint-order="stroke" stroke="#FFFFFF" stroke-width="5">미완료 시</text><line x1="575" y1="270" x2="575" y2="410" stroke="#9AA08F" stroke-width="1.6" marker-end="url(#solid2)"/><text x="587" y="346" font-size="14.5" fill="#5C6355" text-anchor="start" paint-order="stroke" stroke="#FFFFFF" stroke-width="5">완료 → 메인 탭</text><line x1="246" y1="784" x2="246" y2="882" stroke="#9AA08F" stroke-width="1.6" marker-end="url(#solid2)"/><text x="234" y="826" font-size="14.5" fill="#5C6355" text-anchor="end" paint-order="stroke" stroke="#FFFFFF" stroke-width="5">종 아이콘</text><line x1="272" y1="784" x2="420" y2="882" stroke="#9AA08F" stroke-width="1.6" marker-end="url(#solid2)"/><text x="362" y="828" font-size="14.5" fill="#5C6355" text-anchor="start" paint-order="stroke" stroke="#FFFFFF" stroke-width="5">날짜 → 세션 카드</text><line x1="940" y1="616" x2="940" y2="882" stroke="#9AA08F" stroke-width="1.6" marker-end="url(#solid2)"/><text x="952" y="755" font-size="14.5" fill="#5C6355" text-anchor="start" paint-order="stroke" stroke="#FFFFFF" stroke-width="5">모임 카드 · 만들기/참여 직후</text><rect x="40" y="150" width="290" height="162" rx="14" fill="#FAFAF7" stroke="#C9CEC0" stroke-width="1.3"/><text x="56" y="181" font-size="19" font-weight="700" fill="#1F231B">로그인 · 회원가입</text><text x="56" y="203" font-size="12.5" fill="#5C6355" font-family="Consolas,'Cascadia Mono','D2Coding',monospace">(auth)/login.tsx</text><g><rect x="52" y="220" width="266" height="34" rx="10" fill="#E8F1DC" stroke="#3D6B12" stroke-width="1.3"/><text x="67" y="242.075" font-size="14.5" fill="#2F5410"><tspan font-weight="400">A-01</tspan><tspan dx="8" font-weight="600">회원가입</tspan></text></g><g><rect x="52" y="262" width="266" height="34" rx="10" fill="#E8F1DC" stroke="#3D6B12" stroke-width="1.3"/><text x="67" y="284.075" font-size="14.5" fill="#2F5410"><tspan font-weight="400">A-02</tspan><tspan dx="8" font-weight="600">로그인 · 로그아웃</tspan></text></g><rect x="430" y="150" width="290" height="120" rx="14" fill="#FAFAF7" stroke="#C9CEC0" stroke-width="1.3"/><text x="446" y="181" font-size="19" font-weight="700" fill="#1F231B">온보딩</text><text x="446" y="203" font-size="12.5" fill="#5C6355" font-family="Consolas,'Cascadia Mono','D2Coding',monospace">(onboarding)/index.tsx</text><g><rect x="442" y="220" width="266" height="34" rx="10" fill="#E8F1DC" stroke="#3D6B12" stroke-width="1.3"/><text x="457" y="242.075" font-size="14.5" fill="#2F5410"><tspan font-weight="400">A-03</tspan><tspan dx="8" font-weight="600">온보딩</tspan></text></g><rect x="750" y="150" width="290" height="120" rx="14" fill="#FAFAF7" stroke="#C9CEC0" stroke-width="1.3"/><text x="766" y="181" font-size="19" font-weight="700" fill="#1F231B">비밀번호 재설정</text><text x="766" y="203" font-size="12.5" fill="#5C6355" font-family="Consolas,'Cascadia Mono','D2Coding',monospace">(auth)/reset-password.tsx</text><g><rect x="762" y="220" width="266" height="34" rx="10" fill="#FFFFFF" stroke="#8C8C82" stroke-width="1.3" stroke-dasharray="6 4"/><text x="777" y="242.075" font-size="14.5" fill="#5F5F57"><tspan font-weight="400">A-04</tspan><tspan dx="8" font-weight="600">비밀번호 재설정</tspan></text></g><rect x="1070" y="150" width="250" height="120" rx="14" fill="#FAFAF7" stroke="#C9CEC0" stroke-width="1.3"/><text x="1086" y="181" font-size="19" font-weight="700" fill="#1F231B">공지 · Q&amp;A</text><text x="1086" y="203" font-size="12.5" fill="#5C6355" font-family="Consolas,'Cascadia Mono','D2Coding',monospace">board/notice.tsx · qna.tsx</text><text x="1086" y="242" font-size="14.5" fill="#5C6355">로컬 목업 — 유스케이스 밖</text><rect x="40" y="412" width="240" height="372" rx="14" fill="#FAFAF7" stroke="#C9CEC0" stroke-width="1.3"/><text x="56" y="443" font-size="19" font-weight="700" fill="#1F231B">홈</text><text x="56" y="465" font-size="12.5" fill="#5C6355" font-family="Consolas,'Cascadia Mono','D2Coding',monospace">(tabs)/index.tsx</text><g><rect x="52" y="482" width="216" height="34" rx="10" fill="#E8F1DC" stroke="#3D6B12" stroke-width="1.3"/><text x="67" y="504.075" font-size="14.5" fill="#2F5410"><tspan font-weight="400">C-02</tspan><tspan dx="8" font-weight="600">캘린더 · 일별 기록</tspan></text></g><g><rect x="52" y="524" width="216" height="34" rx="10" fill="#E8F1DC" stroke="#3D6B12" stroke-width="1.3"/><text x="67" y="546.075" font-size="14.5" fill="#2F5410"><tspan font-weight="400">E-05</tspan><tspan dx="8" font-weight="600">친구 현황</tspan></text></g><g><rect x="52" y="566" width="216" height="34" rx="10" fill="#E8F1DC" stroke="#3D6B12" stroke-width="1.3"/><text x="67" y="588.075" font-size="14.5" fill="#2F5410"><tspan font-weight="400">E-06</tspan><tspan dx="8" font-weight="600">재촉하기</tspan></text></g><g><rect x="52" y="608" width="216" height="34" rx="10" fill="#E8F1DC" stroke="#3D6B12" stroke-width="1.3"/><text x="67" y="630.075" font-size="14.5" fill="#2F5410"><tspan font-weight="400">E-10</tspan><tspan dx="8" font-weight="600">응원 보내기</tspan></text></g><g><rect x="52" y="650" width="216" height="34" rx="10" fill="#FBE9E9" stroke="#A83232" stroke-width="1.3"/><text x="67" y="672.075" font-size="14.5" fill="#9B2424"><tspan font-weight="400">C-05</tspan><tspan dx="8" font-weight="600">일일 메모</tspan></text></g><g><rect x="52" y="692" width="216" height="34" rx="10" fill="#FBE9E9" stroke="#A83232" stroke-width="1.3"/><text x="67" y="714.075" font-size="14.5" fill="#9B2424"><tspan font-weight="400">C-06</tspan><tspan dx="8" font-weight="600">스트릭 카드</tspan></text></g><g><rect x="52" y="734" width="216" height="34" rx="10" fill="#FBE9E9" stroke="#A83232" stroke-width="1.3"/><text x="67" y="756.075" font-size="14.5" fill="#9B2424"><tspan font-weight="400">D-03</tspan><tspan dx="8" font-weight="600">다음 세션 추천</tspan></text></g><rect x="300" y="412" width="240" height="246" rx="14" fill="#FAFAF7" stroke="#C9CEC0" stroke-width="1.3"/><text x="316" y="443" font-size="19" font-weight="700" fill="#1F231B">활동</text><text x="316" y="465" font-size="12.5" fill="#5C6355" font-family="Consolas,'Cascadia Mono','D2Coding',monospace">(tabs)/activity.tsx</text><g><rect x="312" y="482" width="216" height="34" rx="10" fill="#E8F1DC" stroke="#3D6B12" stroke-width="1.3"/><text x="327" y="504.075" font-size="14.5" fill="#2F5410"><tspan font-weight="400">C-03</tspan><tspan dx="8" font-weight="600">주간 요약</tspan></text></g><g><rect x="312" y="524" width="216" height="34" rx="10" fill="#FBE9E9" stroke="#A83232" stroke-width="1.3"/><text x="327" y="546.075" font-size="14.5" fill="#9B2424"><tspan font-weight="400">C-04</tspan><tspan dx="8" font-weight="600">주간 AI 총평</tspan></text></g><g><rect x="312" y="566" width="216" height="34" rx="10" fill="#FBE9E9" stroke="#A83232" stroke-width="1.3"/><text x="327" y="588.075" font-size="14.5" fill="#9B2424"><tspan font-weight="400">D-01</tspan><tspan dx="8" font-weight="600">운동 목표</tspan></text></g><g><rect x="312" y="608" width="216" height="34" rx="10" fill="#FBE9E9" stroke="#A83232" stroke-width="1.3"/><text x="327" y="630.075" font-size="14.5" fill="#9B2424"><tspan font-weight="400">D-02</tspan><tspan dx="8" font-weight="600">패턴 분석</tspan></text></g><rect x="560" y="412" width="240" height="330" rx="14" fill="#FAFAF7" stroke="#C9CEC0" stroke-width="1.3"/><text x="576" y="443" font-size="19" font-weight="700" fill="#1F231B">운동</text><text x="576" y="465" font-size="12.5" fill="#5C6355" font-family="Consolas,'Cascadia Mono','D2Coding',monospace">(tabs)/exercise.tsx</text><g><rect x="572" y="482" width="216" height="34" rx="10" fill="#FAECD8" stroke="#8A5A12" stroke-width="1.3"/><text x="587" y="504.075" font-size="14.5" fill="#7A4A08"><tspan font-weight="400">B-01</tspan><tspan dx="8" font-weight="600">운동 세션</tspan></text></g><g><rect x="572" y="524" width="216" height="34" rx="10" fill="#FAECD8" stroke="#8A5A12" stroke-width="1.3"/><text x="587" y="546.075" font-size="14.5" fill="#7A4A08"><tspan font-weight="400">B-04</tspan><tspan dx="8" font-weight="600">TTS 피드백</tspan></text></g><g><rect x="572" y="566" width="216" height="34" rx="10" fill="#E8F1DC" stroke="#3D6B12" stroke-width="1.3"/><text x="587" y="588.075" font-size="14.5" fill="#2F5410"><tspan font-weight="400">B-02</tspan><tspan dx="8" font-weight="600">이어하기</tspan></text></g><g><rect x="572" y="608" width="216" height="34" rx="10" fill="#E8F1DC" stroke="#3D6B12" stroke-width="1.3"/><text x="587" y="630.075" font-size="14.5" fill="#2F5410"><tspan font-weight="400">B-03</tspan><tspan dx="8" font-weight="600">세션 타임아웃</tspan></text></g><g><rect x="572" y="650" width="216" height="34" rx="10" fill="#FFFFFF" stroke="#8C8C82" stroke-width="1.3" stroke-dasharray="6 4"/><text x="587" y="672.075" font-size="14.5" fill="#5F5F57"><tspan font-weight="400">B-05</tspan><tspan dx="8" font-weight="600">런지 분석</tspan></text></g><g><rect x="572" y="692" width="216" height="34" rx="10" fill="#FFFFFF" stroke="#8C8C82" stroke-width="1.3" stroke-dasharray="6 4"/><text x="587" y="714.075" font-size="14.5" fill="#5F5F57"><tspan font-weight="400">B-06</tspan><tspan dx="8" font-weight="600">운동 세트</tspan></text></g><rect x="820" y="412" width="240" height="204" rx="14" fill="#FAFAF7" stroke="#C9CEC0" stroke-width="1.3"/><text x="836" y="443" font-size="19" font-weight="700" fill="#1F231B">모임</text><text x="836" y="465" font-size="12.5" fill="#5C6355" font-family="Consolas,'Cascadia Mono','D2Coding',monospace">(tabs)/groups.tsx</text><g><rect x="832" y="482" width="216" height="34" rx="10" fill="#E8F1DC" stroke="#3D6B12" stroke-width="1.3"/><text x="847" y="504.075" font-size="14.5" fill="#2F5410"><tspan font-weight="400">E-01</tspan><tspan dx="8" font-weight="600">모임 만들기</tspan></text></g><g><rect x="832" y="524" width="216" height="34" rx="10" fill="#E8F1DC" stroke="#3D6B12" stroke-width="1.3"/><text x="847" y="546.075" font-size="14.5" fill="#2F5410"><tspan font-weight="400">E-02</tspan><tspan dx="8" font-weight="600">코드로 참여</tspan></text></g><g><rect x="832" y="566" width="216" height="34" rx="10" fill="#FAECD8" stroke="#8A5A12" stroke-width="1.3"/><text x="847" y="588.075" font-size="14.5" fill="#7A4A08"><tspan font-weight="400">E-03</tspan><tspan dx="8" font-weight="600">초대 (회원 지정)</tspan></text></g><rect x="1080" y="412" width="240" height="246" rx="14" fill="#FAFAF7" stroke="#C9CEC0" stroke-width="1.3"/><text x="1096" y="443" font-size="19" font-weight="700" fill="#1F231B">마이</text><text x="1096" y="465" font-size="12.5" fill="#5C6355" font-family="Consolas,'Cascadia Mono','D2Coding',monospace">(tabs)/mypage.tsx</text><g><rect x="1092" y="482" width="216" height="34" rx="10" fill="#E8F1DC" stroke="#3D6B12" stroke-width="1.3"/><text x="1107" y="504.075" font-size="14.5" fill="#2F5410"><tspan font-weight="400">A-05</tspan><tspan dx="8" font-weight="600">TTS 설정</tspan></text></g><g><rect x="1092" y="524" width="216" height="34" rx="10" fill="#E8F1DC" stroke="#3D6B12" stroke-width="1.3"/><text x="1107" y="546.075" font-size="14.5" fill="#2F5410"><tspan font-weight="400">A-02</tspan><tspan dx="8" font-weight="600">로그인 · 로그아웃</tspan></text></g><g><rect x="1092" y="566" width="216" height="34" rx="10" fill="#E8F1DC" stroke="#3D6B12" stroke-width="1.3"/><text x="1107" y="588.075" font-size="14.5" fill="#2F5410"><tspan font-weight="400">A-03</tspan><tspan dx="8" font-weight="600">온보딩</tspan></text></g><g><rect x="1092" y="608" width="216" height="34" rx="10" fill="#FBE9E9" stroke="#A83232" stroke-width="1.3"/><text x="1107" y="630.075" font-size="14.5" fill="#9B2424"><tspan font-weight="400">A-07</tspan><tspan dx="8" font-weight="600">회원 탈퇴</tspan></text></g><rect x="40" y="884" width="240" height="204" rx="14" fill="#FAFAF7" stroke="#C9CEC0" stroke-width="1.3"/><text x="56" y="915" font-size="19" font-weight="700" fill="#1F231B">알림함</text><text x="56" y="937" font-size="12.5" fill="#5C6355" font-family="Consolas,'Cascadia Mono','D2Coding',monospace">notifications.tsx</text><g><rect x="52" y="954" width="216" height="34" rx="10" fill="#E8F1DC" stroke="#3D6B12" stroke-width="1.3"/><text x="67" y="976.075" font-size="14.5" fill="#2F5410"><tspan font-weight="400">F-01</tspan><tspan dx="8" font-weight="600">알림함</tspan></text></g><g><rect x="52" y="996" width="216" height="34" rx="10" fill="#FBE9E9" stroke="#A83232" stroke-width="1.3"/><text x="67" y="1018.075" font-size="14.5" fill="#9B2424"><tspan font-weight="400">A-06</tspan><tspan dx="8" font-weight="600">푸시 토큰 등록</tspan></text></g><g><rect x="52" y="1038" width="216" height="34" rx="10" fill="#FBE9E9" stroke="#A83232" stroke-width="1.3"/><text x="67" y="1060.075" font-size="14.5" fill="#9B2424"><tspan font-weight="400">F-02</tspan><tspan dx="8" font-weight="600">푸시 수신</tspan></text></g><rect x="300" y="884" width="240" height="120" rx="14" fill="#FAFAF7" stroke="#C9CEC0" stroke-width="1.3"/><text x="316" y="915" font-size="19" font-weight="700" fill="#1F231B">세션 리포트</text><text x="316" y="937" font-size="12.5" fill="#5C6355" font-family="Consolas,'Cascadia Mono','D2Coding',monospace">report/[id].tsx</text><g><rect x="312" y="954" width="216" height="34" rx="10" fill="#FAECD8" stroke="#8A5A12" stroke-width="1.3"/><text x="327" y="976.075" font-size="14.5" fill="#7A4A08"><tspan font-weight="400">C-01</tspan><tspan dx="8" font-weight="600">세션 리포트</tspan></text></g><rect x="560" y="884" width="760" height="246" rx="14" fill="#FAFAF7" stroke="#C9CEC0" stroke-width="1.3"/><text x="576" y="915" font-size="19" font-weight="700" fill="#1F231B">모임 상세</text><text x="576" y="937" font-size="12.5" fill="#5C6355" font-family="Consolas,'Cascadia Mono','D2Coding',monospace">group/[id].tsx</text><g><rect x="572" y="954" width="240" height="34" rx="10" fill="#E8F1DC" stroke="#3D6B12" stroke-width="1.3"/><text x="587" y="976.075" font-size="14.5" fill="#2F5410"><tspan font-weight="400">E-04</tspan><tspan dx="8" font-weight="600">모임 상세</tspan></text></g><g><rect x="820" y="954" width="240" height="34" rx="10" fill="#E8F1DC" stroke="#3D6B12" stroke-width="1.3"/><text x="835" y="976.075" font-size="14.5" fill="#2F5410"><tspan font-weight="400">E-09</tspan><tspan dx="8" font-weight="600">모임 출석 캘린더</tspan></text></g><g><rect x="1068" y="954" width="240" height="34" rx="10" fill="#E8F1DC" stroke="#3D6B12" stroke-width="1.3"/><text x="1083" y="976.075" font-size="14.5" fill="#2F5410"><tspan font-weight="400">E-05</tspan><tspan dx="8" font-weight="600">친구 현황</tspan></text></g><g><rect x="572" y="996" width="240" height="34" rx="10" fill="#E8F1DC" stroke="#3D6B12" stroke-width="1.3"/><text x="587" y="1018.075" font-size="14.5" fill="#2F5410"><tspan font-weight="400">E-06</tspan><tspan dx="8" font-weight="600">재촉하기</tspan></text></g><g><rect x="820" y="996" width="240" height="34" rx="10" fill="#E8F1DC" stroke="#3D6B12" stroke-width="1.3"/><text x="835" y="1018.075" font-size="14.5" fill="#2F5410"><tspan font-weight="400">E-10</tspan><tspan dx="8" font-weight="600">응원 보내기</tspan></text></g><g><rect x="1068" y="996" width="240" height="34" rx="10" fill="#E8F1DC" stroke="#3D6B12" stroke-width="1.3"/><text x="1083" y="1018.075" font-size="14.5" fill="#2F5410"><tspan font-weight="400">E-07</tspan><tspan dx="8" font-weight="600">피드 자동 글</tspan></text></g><g><rect x="572" y="1038" width="240" height="34" rx="10" fill="#E8F1DC" stroke="#3D6B12" stroke-width="1.3"/><text x="587" y="1060.075" font-size="14.5" fill="#2F5410"><tspan font-weight="400">E-08</tspan><tspan dx="8" font-weight="600">리액션</tspan></text></g><g><rect x="820" y="1038" width="240" height="34" rx="10" fill="#E8F1DC" stroke="#3D6B12" stroke-width="1.3"/><text x="835" y="1060.075" font-size="14.5" fill="#2F5410"><tspan font-weight="400">E-11</tspan><tspan dx="8" font-weight="600">초대 코드 공유 · 재발급</tspan></text></g><g><rect x="1068" y="1038" width="240" height="34" rx="10" fill="#E8F1DC" stroke="#3D6B12" stroke-width="1.3"/><text x="1083" y="1060.075" font-size="14.5" fill="#2F5410"><tspan font-weight="400">E-12</tspan><tspan dx="8" font-weight="600">모임 탈퇴</tspan></text></g><g><rect x="572" y="1080" width="240" height="34" rx="10" fill="#FBE9E9" stroke="#A83232" stroke-width="1.3"/><text x="587" y="1102.075" font-size="14.5" fill="#9B2424"><tspan font-weight="400">E-13</tspan><tspan dx="8" font-weight="600">그룹장 양도</tspan></text></g><g><rect x="820" y="1080" width="240" height="34" rx="10" fill="#FBE9E9" stroke="#A83232" stroke-width="1.3"/><text x="835" y="1102.075" font-size="14.5" fill="#9B2424"><tspan font-weight="400">F-03</tspan><tspan dx="8" font-weight="600">실시간 수신 (소켓)</tspan></text></g><rect x="40" y="1174" width="22" height="22" rx="5" fill="#E8F1DC" stroke="#3D6B12" stroke-width="1.3"/><text x="72" y="1191" font-size="17" fill="#5C6355">완료 20</text><rect x="178.5" y="1174" width="22" height="22" rx="5" fill="#FAECD8" stroke="#8A5A12" stroke-width="1.3"/><text x="210.5" y="1191" font-size="17" fill="#5C6355">부분 4</text><rect x="302.5" y="1174" width="22" height="22" rx="5" fill="#FBE9E9" stroke="#A83232" stroke-width="1.3"/><text x="334.5" y="1191" font-size="17" fill="#5C6355">화면 없음 11</text><rect x="484.5" y="1174" width="22" height="22" rx="5" fill="#FFFFFF" stroke="#8C8C82" stroke-width="1.3" stroke-dasharray="6 4"/><text x="516.5" y="1191" font-size="17" fill="#5C6355">계획 · 목업 3</text></svg>