<svg xmlns="http://www.w3.org/2000/svg" viewBox="0 0 1360 2084" width="1360" height="2084" role="img" aria-label="ShadowFit 유스케이스 — 프론트엔드" font-family="'Segoe UI','Malgun Gothic','Apple SD Gothic Neo','Noto Sans KR',sans-serif">
<defs><marker id="o10" viewBox="0 0 12 12" refX="11" refY="6" markerWidth="13" markerHeight="13" orient="auto-start-reverse"><path d="M1,1 L11,6 L1,11" fill="none" stroke="#9AA08F" stroke-width="1.6"/></marker>
<marker id="s10" viewBox="0 0 12 12" refX="10" refY="6" markerWidth="11" markerHeight="11" orient="auto-start-reverse"><path d="M1,1 L11,6 L1,11 Z" fill="#9AA08F"/></marker></defs>
<rect width="1360" height="2084" fill="#FFFFFF"/>
<rect x="236" y="36" width="888" height="1874" rx="26" fill="none" stroke="#C9CEC0" stroke-width="1.4" stroke-dasharray="9 7"/><rect x="622" y="54" width="116" height="26" rx="13" fill="#4D7C0F"/><text x="680" y="72" font-size="13.5" font-weight="700" fill="#FFFFFF" text-anchor="middle" letter-spacing="1.5">FRONTEND</text><text x="680" y="112" font-size="25" font-weight="700" fill="#1F231B" text-anchor="middle">ShadowFit 유스케이스 — 프론트엔드</text><text x="680" y="137" font-size="15.5" fill="#5C6355" text-anchor="middle">상태 = 앱 화면 + API 연동 여부 · 코드 실사 · 총 46개</text><line x1="156" y1="820" x2="256" y2="289" stroke="#C9CEC0" stroke-width="1.5"/><line x1="156" y1="820" x2="256" y2="559" stroke="#C9CEC0" stroke-width="1.5"/><line x1="156" y1="820" x2="256" y2="829" stroke="#C9CEC0" stroke-width="1.5"/><line x1="156" y1="820" x2="256" y2="1243" stroke="#C9CEC0" stroke-width="1.5"/><g stroke="#4A4F44" stroke-width="2" fill="none"><circle cx="112" cy="776" r="19" fill="#FFFFFF"/><line x1="112" y1="795" x2="112" y2="836"/><line x1="82" y1="814" x2="142" y2="814"/><line x1="112" y1="836" x2="88" y2="874"/><line x1="112" y1="836" x2="136" y2="874"/>
<text x="112" y="904" font-size="19" font-weight="700" fill="#1F231B" stroke="none" text-anchor="middle">회원</text></g><line x1="1104" y1="559" x2="1136" y2="559" stroke="#C9CEC0" stroke-width="1.5"/><g><rect x="1136" y="527" width="200" height="64" rx="10" fill="#F0EEE8" stroke="#5F5D55" stroke-width="1.3"/><text x="1236" y="566" font-size="19" font-weight="600" fill="#33322D" text-anchor="middle">AI 서버</text></g><line x1="1104" y1="829" x2="1136" y2="829" stroke="#C9CEC0" stroke-width="1.5"/><g><rect x="1136" y="797" width="200" height="64" rx="10" fill="#F0EEE8" stroke="#5F5D55" stroke-width="1.3"/><text x="1236" y="836" font-size="19" font-weight="600" fill="#33322D" text-anchor="middle">LLM (Gemini)</text></g><line x1="1104" y1="1126" x2="1198" y2="1126" stroke="#C9CEC0" stroke-width="1.5"/><g stroke="#4A4F44" stroke-width="2" fill="none"><circle cx="1236" cy="1088" r="19" fill="#FFFFFF"/><line x1="1236" y1="1107" x2="1236" y2="1148"/><line x1="1206" y1="1126" x2="1266" y2="1126"/><line x1="1236" y1="1148" x2="1212" y2="1186"/><line x1="1236" y1="1148" x2="1260" y2="1186"/>
<text x="1236" y="1216" font-size="19" font-weight="700" fill="#1F231B" stroke="none" text-anchor="middle">모임 친구</text></g><line x1="1104" y1="1380" x2="1136" y2="1380" stroke="#C9CEC0" stroke-width="1.5"/><g><rect x="1136" y="1348" width="200" height="64" rx="10" fill="#F0EEE8" stroke="#5F5D55" stroke-width="1.3"/><text x="1236" y="1387" font-size="19" font-weight="600" fill="#33322D" text-anchor="middle">Expo Push</text></g><line x1="1104" y1="1621" x2="1198" y2="1621" stroke="#C9CEC0" stroke-width="1.5"/><g stroke="#4A4F44" stroke-width="2" fill="none"><circle cx="1236" cy="1583" r="19" fill="#FFFFFF"/><line x1="1236" y1="1602" x2="1236" y2="1643"/><line x1="1206" y1="1621" x2="1266" y2="1621"/><line x1="1236" y1="1643" x2="1212" y2="1681"/><line x1="1236" y1="1643" x2="1260" y2="1681"/>
<text x="1236" y="1711" font-size="19" font-weight="700" fill="#1F231B" stroke="none" text-anchor="middle">관리자</text></g><line x1="1104" y1="1819" x2="1136" y2="1819" stroke="#C9CEC0" stroke-width="1.5"/><g><rect x="1136" y="1787" width="200" height="64" rx="10" fill="#F0EEE8" stroke="#5F5D55" stroke-width="1.3"/><text x="1236" y="1826" font-size="19" font-weight="600" fill="#33322D" text-anchor="middle">스케줄러</text></g><rect x="256" y="150" width="848" height="278" rx="18" fill="#FAFAF7" stroke="#C9CEC0" stroke-width="1.2"/><text x="280" y="187" font-size="21" font-weight="700" fill="#1F231B">계정</text><g><rect x="268" y="206" width="264" height="56" rx="10" fill="#E8F1DC" stroke="#3D6B12" stroke-width="3.6"/><text x="283" y="239.95" font-size="17" fill="#2F5410"><tspan font-weight="400">A-01</tspan><tspan dx="8" font-weight="700">회원가입</tspan></text><circle cx="526" cy="210" r="14" fill="#1F231B"/><text x="526" y="215" font-size="14" font-weight="700" fill="#FFFFFF" text-anchor="middle">1</text></g><g><rect x="548" y="206" width="264" height="56" rx="10" fill="#E8F1DC" stroke="#3D6B12" stroke-width="3.6"/><text x="563" y="239.95" font-size="17" fill="#2F5410"><tspan font-weight="400">A-02</tspan><tspan dx="8" font-weight="700">로그인 · 로그아웃</tspan></text><circle cx="806" cy="210" r="14" fill="#1F231B"/><text x="806" y="215" font-size="14" font-weight="700" fill="#FFFFFF" text-anchor="middle">2</text></g><g><rect x="828" y="206" width="264" height="56" rx="10" fill="#E8F1DC" stroke="#3D6B12" stroke-width="3.6"/><text x="843" y="239.95" font-size="17" fill="#2F5410"><tspan font-weight="400">A-03</tspan><tspan dx="8" font-weight="700">온보딩</tspan></text><circle cx="1086" cy="210" r="14" fill="#1F231B"/><text x="1086" y="215" font-size="14" font-weight="700" fill="#FFFFFF" text-anchor="middle">3</text></g><g><rect x="268" y="278" width="264" height="56" rx="10" fill="#FFFFFF" stroke="#8C8C82" stroke-width="1.3" stroke-dasharray="6 4"/><text x="283" y="311.95" font-size="17" fill="#5F5F57"><tspan font-weight="400">A-04</tspan><tspan dx="8" font-weight="600">비밀번호 재설정</tspan></text></g><g><rect x="548" y="278" width="264" height="56" rx="10" fill="#E8F1DC" stroke="#3D6B12" stroke-width="1.3"/><text x="563" y="311.95" font-size="17" fill="#2F5410"><tspan font-weight="400">A-05</tspan><tspan dx="8" font-weight="600">TTS 설정</tspan></text></g><g><rect x="828" y="278" width="264" height="56" rx="10" fill="#FBE9E9" stroke="#A83232" stroke-width="1.3"/><text x="843" y="311.95" font-size="17" fill="#9B2424"><tspan font-weight="400">A-06</tspan><tspan dx="8" font-weight="600">푸시 토큰 등록</tspan></text></g><g><rect x="268" y="350" width="264" height="56" rx="10" fill="#FBE9E9" stroke="#A83232" stroke-width="1.3"/><text x="283" y="383.95" font-size="17" fill="#9B2424"><tspan font-weight="400">A-07</tspan><tspan dx="8" font-weight="600">회원 탈퇴</tspan></text></g><rect x="256" y="456" width="848" height="206" rx="18" fill="#FAFAF7" stroke="#C9CEC0" stroke-width="1.2"/><text x="280" y="493" font-size="21" font-weight="700" fill="#1F231B">① 교정 · 실시간 운동</text><g><rect x="268" y="512" width="264" height="56" rx="10" fill="#FAECD8" stroke="#8A5A12" stroke-width="3.6"/><text x="283" y="545.95" font-size="17" fill="#7A4A08"><tspan font-weight="400">B-01</tspan><tspan dx="8" font-weight="700">운동 세션</tspan></text><circle cx="526" cy="516" r="14" fill="#1F231B"/><text x="526" y="521" font-size="14" font-weight="700" fill="#FFFFFF" text-anchor="middle">4</text></g><g><rect x="548" y="512" width="264" height="56" rx="10" fill="#FAECD8" stroke="#A83232" stroke-width="3.6"/><text x="563" y="545.95" font-size="17" fill="#7A4A08"><tspan font-weight="400">B-04</tspan><tspan dx="8" font-weight="700">TTS 피드백</tspan></text><circle cx="806" cy="516" r="14" fill="#1F231B"/><text x="806" y="521" font-size="14" font-weight="700" fill="#FFFFFF" text-anchor="middle">5</text></g><g><rect x="828" y="512" width="264" height="56" rx="10" fill="#E8F1DC" stroke="#3D6B12" stroke-width="1.3"/><text x="843" y="545.95" font-size="17" fill="#2F5410"><tspan font-weight="400">B-02</tspan><tspan dx="8" font-weight="600">이어하기</tspan></text></g><g><rect x="268" y="584" width="264" height="56" rx="10" fill="#E8F1DC" stroke="#3D6B12" stroke-width="1.3"/><text x="283" y="617.95" font-size="17" fill="#2F5410"><tspan font-weight="400">B-03</tspan><tspan dx="8" font-weight="600">세션 타임아웃</tspan></text></g><g><rect x="548" y="584" width="264" height="56" rx="10" fill="#FFFFFF" stroke="#8C8C82" stroke-width="1.3" stroke-dasharray="6 4"/><text x="563" y="617.95" font-size="17" fill="#5F5F57"><tspan font-weight="400">B-05</tspan><tspan dx="8" font-weight="600">런지 분석</tspan></text></g><g><rect x="828" y="584" width="264" height="56" rx="10" fill="#FFFFFF" stroke="#8C8C82" stroke-width="1.3" stroke-dasharray="6 4"/><text x="843" y="617.95" font-size="17" fill="#5F5F57"><tspan font-weight="400">B-06</tspan><tspan dx="8" font-weight="600">운동 세트</tspan></text></g><rect x="256" y="690" width="848" height="278" rx="18" fill="#FAFAF7" stroke="#C9CEC0" stroke-width="1.2"/><text x="280" y="727" font-size="21" font-weight="700" fill="#1F231B">② 기록 · 리포트</text><g><rect x="268" y="746" width="264" height="56" rx="10" fill="#FAECD8" stroke="#A83232" stroke-width="3.6"/><text x="283" y="779.95" font-size="17" fill="#7A4A08"><tspan font-weight="400">C-01</tspan><tspan dx="8" font-weight="700">세션 리포트</tspan></text><circle cx="526" cy="750" r="14" fill="#1F231B"/><text x="526" y="755" font-size="14" font-weight="700" fill="#FFFFFF" text-anchor="middle">6</text></g><g><rect x="548" y="746" width="264" height="56" rx="10" fill="#E8F1DC" stroke="#3D6B12" stroke-width="1.3"/><text x="563" y="779.95" font-size="17" fill="#2F5410"><tspan font-weight="400">C-02</tspan><tspan dx="8" font-weight="600">캘린더 · 일별 기록</tspan></text></g><g><rect x="828" y="746" width="264" height="56" rx="10" fill="#E8F1DC" stroke="#3D6B12" stroke-width="1.3"/><text x="843" y="779.95" font-size="17" fill="#2F5410"><tspan font-weight="400">C-03</tspan><tspan dx="8" font-weight="600">주간 요약</tspan></text></g><g><rect x="268" y="818" width="264" height="56" rx="10" fill="#FBE9E9" stroke="#A83232" stroke-width="1.3"/><text x="283" y="851.95" font-size="17" fill="#9B2424"><tspan font-weight="400">C-04</tspan><tspan dx="8" font-weight="600">주간 AI 총평</tspan></text></g><g><rect x="548" y="818" width="264" height="56" rx="10" fill="#FBE9E9" stroke="#A83232" stroke-width="1.3"/><text x="563" y="851.95" font-size="17" fill="#9B2424"><tspan font-weight="400">C-05</tspan><tspan dx="8" font-weight="600">일일 메모</tspan></text></g><g><rect x="828" y="818" width="264" height="56" rx="10" fill="#FBE9E9" stroke="#A83232" stroke-width="1.3"/><text x="843" y="851.95" font-size="17" fill="#9B2424"><tspan font-weight="400">C-06</tspan><tspan dx="8" font-weight="600">스트릭 카드</tspan></text></g><g><rect x="268" y="890" width="264" height="56" rx="10" fill="#FBE9E9" stroke="#A83232" stroke-width="1.3"/><text x="283" y="923.95" font-size="17" fill="#9B2424"><tspan font-weight="400">D-01</tspan><tspan dx="8" font-weight="600">운동 목표</tspan></text></g><g><rect x="548" y="890" width="264" height="56" rx="10" fill="#FBE9E9" stroke="#A83232" stroke-width="1.3"/><text x="563" y="923.95" font-size="17" fill="#9B2424"><tspan font-weight="400">D-02</tspan><tspan dx="8" font-weight="600">패턴 분석</tspan></text></g><g><rect x="828" y="890" width="264" height="56" rx="10" fill="#FBE9E9" stroke="#A83232" stroke-width="1.3"/><text x="843" y="923.95" font-size="17" fill="#9B2424"><tspan font-weight="400">D-03</tspan><tspan dx="8" font-weight="600">다음 세션 추천</tspan></text></g><rect x="256" y="996" width="848" height="494" rx="18" fill="#FAFAF7" stroke="#C9CEC0" stroke-width="1.2"/><text x="280" y="1033" font-size="21" font-weight="700" fill="#1F231B">③ 지속 · 모임과 알림</text><g><rect x="268" y="1052" width="264" height="56" rx="10" fill="#E8F1DC" stroke="#3D6B12" stroke-width="1.3"/><text x="283" y="1085.95" font-size="17" fill="#2F5410"><tspan font-weight="400">E-01</tspan><tspan dx="8" font-weight="600">모임 만들기</tspan></text></g><g><rect x="548" y="1052" width="264" height="56" rx="10" fill="#E8F1DC" stroke="#3D6B12" stroke-width="3.6"/><text x="563" y="1085.95" font-size="17" fill="#2F5410"><tspan font-weight="400">E-02</tspan><tspan dx="8" font-weight="700">코드로 참여</tspan></text><circle cx="806" cy="1056" r="14" fill="#1F231B"/><text x="806" y="1061" font-size="14" font-weight="700" fill="#FFFFFF" text-anchor="middle">7</text></g><g><rect x="828" y="1052" width="264" height="56" rx="10" fill="#FAECD8" stroke="#8A5A12" stroke-width="1.3"/><text x="843" y="1085.95" font-size="17" fill="#7A4A08"><tspan font-weight="400">E-03</tspan><tspan dx="8" font-weight="600">초대 (회원 지정)</tspan></text></g><g><rect x="268" y="1124" width="264" height="56" rx="10" fill="#E8F1DC" stroke="#3D6B12" stroke-width="3.6"/><text x="283" y="1157.95" font-size="17" fill="#2F5410"><tspan font-weight="400">E-04</tspan><tspan dx="8" font-weight="700">모임 상세</tspan></text><circle cx="526" cy="1128" r="14" fill="#1F231B"/><text x="526" y="1133" font-size="14" font-weight="700" fill="#FFFFFF" text-anchor="middle">8</text></g><g><rect x="548" y="1124" width="264" height="56" rx="10" fill="#E8F1DC" stroke="#3D6B12" stroke-width="3.6"/><text x="563" y="1157.95" font-size="17" fill="#2F5410"><tspan font-weight="400">E-05</tspan><tspan dx="8" font-weight="700">친구 현황</tspan></text><circle cx="806" cy="1128" r="14" fill="#1F231B"/><text x="806" y="1133" font-size="14" font-weight="700" fill="#FFFFFF" text-anchor="middle">10</text></g><g><rect x="828" y="1124" width="264" height="56" rx="10" fill="#E8F1DC" stroke="#3D6B12" stroke-width="3.6"/><text x="843" y="1157.95" font-size="17" fill="#2F5410"><tspan font-weight="400">E-06</tspan><tspan dx="8" font-weight="700">재촉하기</tspan></text><circle cx="1086" cy="1128" r="14" fill="#1F231B"/><text x="1086" y="1133" font-size="14" font-weight="700" fill="#FFFFFF" text-anchor="middle">11</text></g><g><rect x="268" y="1196" width="264" height="56" rx="10" fill="#E8F1DC" stroke="#3D6B12" stroke-width="3.6"/><text x="283" y="1229.95" font-size="17" fill="#2F5410"><tspan font-weight="400">E-10</tspan><tspan dx="8" font-weight="700">응원 보내기</tspan></text><circle cx="526" cy="1200" r="14" fill="#1F231B"/><text x="526" y="1205" font-size="14" font-weight="700" fill="#FFFFFF" text-anchor="middle">12</text></g><g><rect x="548" y="1196" width="264" height="56" rx="10" fill="#E8F1DC" stroke="#3D6B12" stroke-width="3.6"/><text x="563" y="1229.95" font-size="17" fill="#2F5410"><tspan font-weight="400">E-07</tspan><tspan dx="8" font-weight="700">피드 자동 글</tspan></text><circle cx="806" cy="1200" r="14" fill="#1F231B"/><text x="806" y="1205" font-size="14" font-weight="700" fill="#FFFFFF" text-anchor="middle">9</text></g><g><rect x="828" y="1196" width="264" height="56" rx="10" fill="#E8F1DC" stroke="#3D6B12" stroke-width="1.3"/><text x="843" y="1229.95" font-size="17" fill="#2F5410"><tspan font-weight="400">E-08</tspan><tspan dx="8" font-weight="600">리액션</tspan></text></g><g><rect x="268" y="1268" width="264" height="56" rx="10" fill="#E8F1DC" stroke="#3D6B12" stroke-width="1.3"/><text x="283" y="1301.95" font-size="17" fill="#2F5410"><tspan font-weight="400">E-09</tspan><tspan dx="8" font-weight="600">모임 출석 캘린더</tspan></text></g><g><rect x="548" y="1268" width="264" height="56" rx="10" fill="#E8F1DC" stroke="#3D6B12" stroke-width="1.3"/><text x="563" y="1301.95" font-size="17" fill="#2F5410"><tspan font-weight="400">E-11</tspan><tspan dx="8" font-weight="600">초대 코드 공유 · 재발급</tspan></text></g><g><rect x="828" y="1268" width="264" height="56" rx="10" fill="#E8F1DC" stroke="#3D6B12" stroke-width="1.3"/><text x="843" y="1301.95" font-size="17" fill="#2F5410"><tspan font-weight="400">E-12</tspan><tspan dx="8" font-weight="600">모임 탈퇴</tspan></text></g><g><rect x="268" y="1340" width="264" height="56" rx="10" fill="#FBE9E9" stroke="#A83232" stroke-width="1.3"/><text x="283" y="1373.95" font-size="17" fill="#9B2424"><tspan font-weight="400">E-13</tspan><tspan dx="8" font-weight="600">그룹장 양도</tspan></text></g><g><rect x="548" y="1340" width="264" height="56" rx="10" fill="#E8F1DC" stroke="#3D6B12" stroke-width="3.6"/><text x="563" y="1373.95" font-size="17" fill="#2F5410"><tspan font-weight="400">F-01</tspan><tspan dx="8" font-weight="700">알림함</tspan></text><circle cx="806" cy="1344" r="14" fill="#1F231B"/><text x="806" y="1349" font-size="14" font-weight="700" fill="#FFFFFF" text-anchor="middle">13</text></g><g><rect x="828" y="1340" width="264" height="56" rx="10" fill="#FBE9E9" stroke="#A83232" stroke-width="1.3"/><text x="843" y="1373.95" font-size="17" fill="#9B2424"><tspan font-weight="400">F-02</tspan><tspan dx="8" font-weight="600">푸시 수신</tspan></text></g><g><rect x="268" y="1412" width="264" height="56" rx="10" fill="#FBE9E9" stroke="#A83232" stroke-width="1.3"/><text x="283" y="1445.95" font-size="17" fill="#9B2424"><tspan font-weight="400">F-03</tspan><tspan dx="8" font-weight="600">실시간 수신 (소켓)</tspan></text></g><rect x="256" y="1518" width="848" height="206" rx="18" fill="#FAFAF7" stroke="#C9CEC0" stroke-width="1.2"/><text x="280" y="1555" font-size="21" font-weight="700" fill="#1F231B">앱 밖 · 운영 (Swagger 증빙)</text><g><rect x="268" y="1574" width="264" height="56" rx="10" fill="#F0EEE8" stroke="#66645C" stroke-width="1.3"/><text x="283" y="1607.95" font-size="17" fill="#4A4943"><tspan font-weight="400">G-01</tspan><tspan dx="8" font-weight="600">종목 · 카테고리 관리</tspan></text></g><g><rect x="548" y="1574" width="264" height="56" rx="10" fill="#F0EEE8" stroke="#66645C" stroke-width="3.6"/><text x="563" y="1607.95" font-size="17" fill="#4A4943"><tspan font-weight="400">G-03</tspan><tspan dx="8" font-weight="700">기준 영상 등록</tspan></text><rect x="762" y="1563" width="52" height="23" rx="11.5" fill="#1F231B"/><text x="788" y="1579" font-size="12.5" font-weight="700" fill="#FFFFFF" text-anchor="middle">사전</text></g><g><rect x="828" y="1574" width="264" height="56" rx="10" fill="#F0EEE8" stroke="#66645C" stroke-width="1.3"/><text x="843" y="1607.95" font-size="17" fill="#4A4943"><tspan font-weight="400">G-04</tspan><tspan dx="8" font-weight="600">분석 지원 토글</tspan></text></g><g><rect x="268" y="1646" width="264" height="56" rx="10" fill="#F0EEE8" stroke="#66645C" stroke-width="1.3"/><text x="283" y="1679.95" font-size="17" fill="#4A4943"><tspan font-weight="400">G-05</tspan><tspan dx="8" font-weight="600">싱크로율 임계값</tspan></text></g><g><rect x="548" y="1646" width="264" height="56" rx="10" fill="#F0EEE8" stroke="#66645C" stroke-width="1.3"/><text x="563" y="1679.95" font-size="17" fill="#4A4943"><tspan font-weight="400">G-06</tspan><tspan dx="8" font-weight="600">회원 · 세션 · 통계 조회</tspan></text></g><rect x="256" y="1752" width="848" height="134" rx="18" fill="#FAFAF7" stroke="#C9CEC0" stroke-width="1.2"/><text x="280" y="1789" font-size="21" font-weight="700" fill="#1F231B">앱 밖 · 시스템</text><g><rect x="268" y="1808" width="264" height="56" rx="10" fill="#F0EEE8" stroke="#66645C" stroke-width="3.6"/><text x="283" y="1841.95" font-size="17" fill="#4A4943"><tspan font-weight="400">S-01</tspan><tspan dx="8" font-weight="700">아웃박스 발행</tspan></text><rect x="482" y="1797" width="52" height="23" rx="11.5" fill="#1F231B"/><text x="508" y="1813" font-size="12.5" font-weight="700" fill="#FFFFFF" text-anchor="middle">배경</text></g><g><rect x="548" y="1808" width="264" height="56" rx="10" fill="#F0EEE8" stroke="#66645C" stroke-width="1.3"/><text x="563" y="1841.95" font-size="17" fill="#4A4943"><tspan font-weight="400">S-02</tspan><tspan dx="8" font-weight="600">주간 리포트 생성</tspan></text></g><g><rect x="828" y="1808" width="264" height="56" rx="10" fill="#F0EEE8" stroke="#66645C" stroke-width="1.3"/><text x="843" y="1841.95" font-size="17" fill="#4A4943"><tspan font-weight="400">S-04</tspan><tspan dx="8" font-weight="600">장애 복구 (워커 재부착)</tspan></text></g><rect x="150" y="1944" width="22" height="22" rx="5" fill="#E8F1DC" stroke="#3D6B12" stroke-width="1.3"/><text x="182" y="1961" font-size="17" fill="#5C6355">완료</text><rect x="245" y="1944" width="22" height="22" rx="5" fill="#FAECD8" stroke="#8A5A12" stroke-width="1.3"/><text x="277" y="1961" font-size="17" fill="#5C6355">부분</text><rect x="340" y="1944" width="22" height="22" rx="5" fill="#FBE9E9" stroke="#A83232" stroke-width="1.3"/><text x="372" y="1961" font-size="17" fill="#5C6355">화면 없음</text><rect x="477.5" y="1944" width="22" height="22" rx="5" fill="#FFFFFF" stroke="#8C8C82" stroke-width="1.3" stroke-dasharray="6 4"/><text x="509.5" y="1961" font-size="17" fill="#5C6355">계획 · 목업</text><rect x="634" y="1944" width="22" height="22" rx="5" fill="#F0EEE8" stroke="#66645C" stroke-width="1.3"/><text x="666" y="1961" font-size="17" fill="#5C6355">앱 밖 (백엔드)</text><rect x="150" y="1984" width="22" height="22" rx="5" fill="#FFFFFF" stroke="#1F231B" stroke-width="3.6"/><text x="182" y="2001" font-size="17" fill="#5C6355">굵은 테두리 = 시연 필수 (15개) · 숫자 = 누르는 순서 · «사전» 은 미리 준비, «배경» 은 뒤에서 돈다</text><rect x="150" y="2024" width="22" height="22" rx="5" fill="#FFFFFF" stroke="#A83232" stroke-width="3.6"/><text x="182" y="2041" font-size="17" fill="#5C6355">붉은 굵은 테두리 = 시연 필수인데 아직 미완 (B-04 음성 미연결 · C-01 본문 목업)</text></svg>